<svg xmlns="http://www.w3.org/2000/svg" viewBox="0 0 1718 731.06"><defs><style>.cls-1,.cls-6{fill:#fff;}.cls-2{font-size:31.9px;}.cls-2,.cls-5{fill:#303030;}.cls-2,.cls-6{font-family:MyriadPro-Regular, Myriad Pro;}.cls-3{fill:none;stroke:#303030;stroke-miterlimit:10;stroke-width:2px;}.cls-4{fill:#c8102e;}.cls-6{font-size:52.41px;}.cls-7{letter-spacing:0.01em;}.cls-8{letter-spacing:-0.01em;}.cls-9{letter-spacing:0.02em;}.cls-10{letter-spacing:-0.01em;}</style></defs><title>søjlediagram-alt</title><g id="Baggrund"><rect class="cls-1" width="1718" height="731.06" rx="35.81"/></g><g id="Graf"><text class="cls-2" transform="translate(484.94 639.84)">18.5 - 25</text><line class="cls-3" x1="117.67" y1="532.22" x2="147.67" y2="532.22"/><line class="cls-3" x1="117.67" y1="457.22" x2="147.67" y2="457.22"/><line class="cls-3" x1="117.67" y1="382.22" x2="147.67" y2="382.22"/><line class="cls-3" x1="117.67" y1="307.22" x2="147.67" y2="307.22"/><line class="cls-3" x1="117.67" y1="232.22" x2="147.67" y2="232.22"/><path class="cls-4" d="M420.55,382.22H671.79a24.38,24.38,0,0,1,24.38,24.38V596.72a0,0,0,0,1,0,0h-300a0,0,0,0,1,0,0V406.6A24.38,24.38,0,0,1,420.55,382.22Z"/><path class="cls-5" d="M984.55,307.22h251.23a24.38,24.38,0,0,1,24.38,24.38V499.72a0,0,0,0,1,0,0h-300a0,0,0,0,1,0,0V331.6A24.38,24.38,0,0,1,984.55,307.22Z"/><path class="cls-4" d="M984.55,382.22h251.23a24.38,24.38,0,0,1,24.38,24.38V597.72a0,0,0,0,1,0,0h-300a0,0,0,0,1,0,0V406.6A24.38,24.38,0,0,1,984.55,382.22Z"/><path class="cls-3" d="M234,438V831.46A52.54,52.54,0,0,0,286.54,884H1636" transform="translate(-101.33 -286.78)"/><path class="cls-4" d="M243.92,401.17,267.22,433a12,12,0,0,1-9.65,19H211a12,12,0,0,1-9.65-19l23.3-31.82A12,12,0,0,1,243.92,401.17Z" transform="translate(-101.33 -286.78)"/><path class="cls-4" d="M1675.85,894,1644,917.31a12,12,0,0,1-19-9.65V861.05a12,12,0,0,1,19-9.65l31.81,23.3A12,12,0,0,1,1675.85,894Z" transform="translate(-101.33 -286.78)"/><text class="cls-6" transform="translate(1049.2 362.39) scale(0.95 1)">+30%</text><text class="cls-2" transform="translate(1085.87 640.27)">25 +</text><text class="cls-2" transform="translate(1583.03 651.11)">BMI</text><text class="cls-2" transform="translate(183 119.11)"><tspan class="cls-7">R</tspan><tspan x="17.48" y="0">isiko </tspan><tspan class="cls-8" x="84.27" y="0">f</tspan><tspan x="93.17" y="0">or hje</tspan><tspan class="cls-9" x="169.31" y="0">r</tspan><tspan class="cls-10" x="180.51" y="0">t</tspan><tspan x="190.87" y="0">esvigt</tspan></text><line class="cls-3" x1="395.67" y1="582.22" x2="395.67" y2="612.22"/><line class="cls-3" x1="696.67" y1="582.22" x2="696.67" y2="612.22"/><line class="cls-3" x1="959.67" y1="582.22" x2="959.67" y2="612.22"/><line class="cls-3" x1="1260.67" y1="582.22" x2="1260.67" y2="612.22"/><line class="cls-3" x1="828.67" y1="582.22" x2="828.67" y2="612.22"/><line class="cls-3" x1="1109.67" y1="582.22" x2="1109.67" y2="612.22"/><line class="cls-3" x1="545.67" y1="582.22" x2="545.67" y2="612.22"/><line class="cls-3" x1="1391.67" y1="582.22" x2="1391.67" y2="612.22"/><line class="cls-3" x1="263.67" y1="582.22" x2="263.67" y2="612.22"/></g></svg>