<svg id="Lag_1" data-name="Lag 1" xmlns="http://www.w3.org/2000/svg" xmlns:xlink="http://www.w3.org/1999/xlink" viewBox="0 0 705.22 486"><defs><style>.cls-1,.cls-6{fill:none;}.cls-2{clip-path:url(#clip-path);}.cls-3{fill:#fff;}.cls-4{fill:#333;}.cls-5{fill:#c8102e;}.cls-6{stroke:#1d1d1b;stroke-miterlimit:10;}</style><clipPath id="clip-path" transform="translate(-460.14 -355)"><rect class="cls-1" width="1920" height="1080"/></clipPath></defs><title>søjlediagram</title><g class="cls-2"><path class="cls-3" d="M1125,841H500.55a40.41,40.41,0,0,1-40.41-40.41V395.41A40.41,40.41,0,0,1,500.55,355H1125a40.41,40.41,0,0,1,40.41,40.41V800.59A40.41,40.41,0,0,1,1125,841" transform="translate(-460.14 -355)"/><path class="cls-4" d="M978.78,611H862.84V551.29A17.28,17.28,0,0,1,880.12,534H961.5a17.29,17.29,0,0,1,17.28,17.29Z" transform="translate(-460.14 -355)"/><path class="cls-5" d="M1115.5,773.94l-21.62-12.48a5.44,5.44,0,0,0-8.16,4.71v25a5.44,5.44,0,0,0,8.16,4.71l21.62-12.48a5.44,5.44,0,0,0,0-9.42" transform="translate(-460.14 -355)"/><line class="cls-5" x1="172.99" y1="423.47" x2="172.99" y2="446.44"/><line class="cls-6" x1="172.99" y1="423.47" x2="172.99" y2="446.44"/><line class="cls-5" x1="288.93" y1="423.47" x2="288.93" y2="445.35"/><line class="cls-6" x1="288.93" y1="423.47" x2="288.93" y2="445.35"/><line class="cls-5" x1="402.69" y1="423.47" x2="402.69" y2="447.54"/><line class="cls-6" x1="402.69" y1="423.47" x2="402.69" y2="447.54"/><line class="cls-5" x1="518.64" y1="423.47" x2="518.64" y2="447.54"/><line class="cls-6" x1="518.64" y1="423.47" x2="518.64" y2="447.54"/><line class="cls-3" x1="52.79" y1="425.12" x2="52.79" y2="52.29"/><line class="cls-6" x1="52.79" y1="425.12" x2="52.79" y2="52.29"/><line class="cls-5" x1="41.23" y1="361.98" x2="65.36" y2="361.98"/><line class="cls-6" x1="41.23" y1="361.98" x2="65.36" y2="361.98"/><line class="cls-5" x1="40.63" y1="298.06" x2="64.76" y2="298.06"/><line class="cls-6" x1="40.63" y1="298.06" x2="64.76" y2="298.06"/><line class="cls-5" x1="40.9" y1="238.48" x2="65.03" y2="238.48"/><line class="cls-6" x1="40.9" y1="238.48" x2="65.03" y2="238.48"/><line class="cls-5" x1="41.63" y1="179.23" x2="65.76" y2="179.23"/><line class="cls-6" x1="41.63" y1="179.23" x2="65.76" y2="179.23"/><line class="cls-5" x1="41.63" y1="120.34" x2="65.76" y2="120.34"/><line class="cls-6" x1="41.63" y1="120.34" x2="65.76" y2="120.34"/><path class="cls-5" d="M748,778.47H632V610.28A17.28,17.28,0,0,1,649.32,593H730.7A17.28,17.28,0,0,1,748,610.28Z" transform="translate(-460.14 -355)"/><path class="cls-5" d="M978.78,779.57H862.84V610.29A17.28,17.28,0,0,1,880.12,593H961.5a17.29,17.29,0,0,1,17.28,17.29Z" transform="translate(-460.14 -355)"/></g><path class="cls-3" d="M895.92,563h5.57v1.48h-5.57v6.37H894.4v-6.37h-5.46V563h5.46v-6.15h1.52Z" transform="translate(-460.14 -355)"/><path class="cls-3" d="M907.61,562.31h1.56a5,5,0,0,0,2.26-.48,3.47,3.47,0,0,0,1.48-1.32,3.67,3.67,0,0,0,.51-1.94,4,4,0,0,0-1-2.89,3.76,3.76,0,0,0-2.86-1,4,4,0,0,0-2.89,1.09,3.8,3.8,0,0,0-1.12,2.87h-1.51a5.4,5.4,0,0,1,.71-2.73,5,5,0,0,1,2-1.91,5.93,5.93,0,0,1,2.82-.67,4.93,4.93,0,0,1,5.36,5.34,4.28,4.28,0,0,1-.84,2.55,4.94,4.94,0,0,1-2.29,1.75,4.71,4.71,0,0,1,2.59,1.73,4.8,4.8,0,0,1,.88,2.91,5.31,5.31,0,0,1-1.54,4,5.61,5.61,0,0,1-4.1,1.5,6.55,6.55,0,0,1-3-.68,5.06,5.06,0,0,1-2.11-1.93,5.41,5.41,0,0,1-.75-2.87h1.51a3.93,3.93,0,0,0,1.22,3,4.37,4.37,0,0,0,3.13,1.16,4.19,4.19,0,0,0,3-1.05,4,4,0,0,0,1.09-3,3.66,3.66,0,0,0-1.18-2.94,5.14,5.14,0,0,0-3.46-1h-1.51Z" transform="translate(-460.14 -355)"/><path class="cls-3" d="M929.59,564.77a11.07,11.07,0,0,1-1.43,6.18,5.23,5.23,0,0,1-8.35,0,10.66,10.66,0,0,1-1.48-6v-3.45a10.82,10.82,0,0,1,1.43-6.14,5.27,5.27,0,0,1,8.34-.08,10.5,10.5,0,0,1,1.49,5.94Zm-1.51-3.45a9.78,9.78,0,0,0-1-5,3.68,3.68,0,0,0-6.17,0,9.43,9.43,0,0,0-1.06,4.87v3.78a9.79,9.79,0,0,0,1.07,5,3.6,3.6,0,0,0,6.14,0,9.88,9.88,0,0,0,1.05-5Z" transform="translate(-460.14 -355)"/><path class="cls-3" d="M932.47,557.25a4.11,4.11,0,0,1,1-2.85,3.49,3.49,0,0,1,5.14,0,4.22,4.22,0,0,1,1,2.93v.94a4.12,4.12,0,0,1-1,2.82,3.28,3.28,0,0,1-2.56,1.13,3.38,3.38,0,0,1-2.58-1.11,4.13,4.13,0,0,1-1-2.93Zm1.22,1a3.12,3.12,0,0,0,.64,2,2.15,2.15,0,0,0,1.75.79,2,2,0,0,0,1.7-.8,3.18,3.18,0,0,0,.64-2.07v-1a3.1,3.1,0,0,0-.66-2,2.1,2.1,0,0,0-1.71-.8,2.12,2.12,0,0,0-1.7.8,3.19,3.19,0,0,0-.66,2.11Zm2.87,12.93-.95-.63,8.95-15,.94.64Zm5.13-3.12a4.11,4.11,0,0,1,1-2.84,3.5,3.5,0,0,1,5.13,0,4.14,4.14,0,0,1,1,2.94v.93a4.08,4.08,0,0,1-1,2.84,3.5,3.5,0,0,1-5.14,0,4.13,4.13,0,0,1-1-2.91Zm1.21,1a3.13,3.13,0,0,0,.64,2,2.15,2.15,0,0,0,1.75.79,2.07,2.07,0,0,0,1.71-.8,3.23,3.23,0,0,0,.64-2.1v-1A3.11,3.11,0,0,0,947,566a2.3,2.3,0,0,0-3.44,0,3.13,3.13,0,0,0-.65,2.09Z" transform="translate(-460.14 -355)"/><path d="M1101.75,824.86V806.19h5.51a7.19,7.19,0,0,1,4.55,1.24,4.38,4.38,0,0,1,1.55,3.65,4.15,4.15,0,0,1-.78,2.52,4.32,4.32,0,0,1-2.16,1.53,4.57,4.57,0,0,1,2.62,1.6,4.49,4.49,0,0,1,1,2.87,4.85,4.85,0,0,1-1.6,3.87,6.56,6.56,0,0,1-4.44,1.39Zm1.58-10.3h4.3a4.77,4.77,0,0,0,3.06-.93,3.17,3.17,0,0,0,1.08-2.6,3.11,3.11,0,0,0-1.12-2.65,5.57,5.57,0,0,0-3.39-.85h-3.93Zm0,1.34v7.62h4.73a4.71,4.71,0,0,0,3.21-1,3.58,3.58,0,0,0,1.18-2.86,3.45,3.45,0,0,0-1.13-2.73,4.57,4.57,0,0,0-3.14-1Z" transform="translate(-460.14 -355)"/><path d="M1119.93,806.19l6.88,16.47,6.91-16.47h2.1v18.67h-1.58v-8.13l.13-8.33-6.95,16.46h-1.21l-6.92-16.4.12,8.22v8.18h-1.57V806.19Z" transform="translate(-460.14 -355)"/><path d="M1142.47,824.86h-1.57V806.19h1.57Z" transform="translate(-460.14 -355)"/><path d="M563.6,406.91h-4.7v6.73h-1.37V397.5h5.24a6,6,0,0,1,4,1.25,4.76,4.76,0,0,1,.55,6.23,4.65,4.65,0,0,1-2.44,1.64l4,6.88v.14H567.5Zm-4.7-1.15h4.19a3.9,3.9,0,0,0,2.76-1,3.69,3.69,0,0,0-.05-5.19,4.49,4.49,0,0,0-3-.94H558.9Z" transform="translate(-460.14 -355)"/><path d="M571.59,398.18a.85.85,0,0,1,.25-.63.83.83,0,0,1,.66-.26.9.9,0,0,1,.67,1.52.88.88,0,0,1-.67.25.86.86,0,0,1-.91-.88Zm1.57,15.46h-1.33v-12h1.33Z" transform="translate(-460.14 -355)"/><path d="M584,410.59a1.89,1.89,0,0,0-.79-1.58,6.21,6.21,0,0,0-2.39-.94,10.56,10.56,0,0,1-2.48-.78,3.18,3.18,0,0,1-1.31-1.07,2.62,2.62,0,0,1-.43-1.53,2.86,2.86,0,0,1,1.19-2.34,4.77,4.77,0,0,1,3-.93,4.93,4.93,0,0,1,3.22,1,3.2,3.2,0,0,1,1.21,2.59h-1.33a2.15,2.15,0,0,0-.88-1.75,3.51,3.51,0,0,0-2.22-.7,3.42,3.42,0,0,0-2.1.59,1.78,1.78,0,0,0-.8,1.51,1.63,1.63,0,0,0,.66,1.39,6.88,6.88,0,0,0,2.41.9,11.73,11.73,0,0,1,2.62.88,3.34,3.34,0,0,1,1.29,1.12,2.9,2.9,0,0,1,.42,1.59,2.87,2.87,0,0,1-1.22,2.42,5.24,5.24,0,0,1-3.21.91,5.32,5.32,0,0,1-3.39-1,3.13,3.13,0,0,1-1.31-2.57h1.33a2.33,2.33,0,0,0,1,1.82,4,4,0,0,0,2.39.64,3.77,3.77,0,0,0,2.25-.61A1.82,1.82,0,0,0,584,410.59Z" transform="translate(-460.14 -355)"/><path d="M588.19,398.18a.88.88,0,0,1,.24-.63.84.84,0,0,1,.67-.26.87.87,0,0,1,.67.26.88.88,0,0,1-.67,1.51.87.87,0,0,1-.67-.25A.88.88,0,0,1,588.19,398.18Zm1.56,15.46h-1.33v-12h1.33Z" transform="translate(-460.14 -355)"/><path d="M596.21,407.6l-1.52,1.46v4.58h-1.33v-17h1.33v10.9l1.25-1.35,4.59-4.52h1.68l-5.09,5.06,5.53,6.94h-1.59Z" transform="translate(-460.14 -355)"/><path d="M603.75,407.47a7,7,0,0,1,.67-3.12,5.19,5.19,0,0,1,1.9-2.16,5.12,5.12,0,0,1,2.78-.77A4.94,4.94,0,0,1,613,403.1a6.48,6.48,0,0,1,1.48,4.45v.28a7.05,7.05,0,0,1-.67,3.13,5,5,0,0,1-1.89,2.15,5.19,5.19,0,0,1-2.78.75,4.94,4.94,0,0,1-3.88-1.68,6.47,6.47,0,0,1-1.49-4.45Zm1.33.36a5.44,5.44,0,0,0,1.11,3.53,3.78,3.78,0,0,0,5.84,0,5.63,5.63,0,0,0,1.11-3.64v-.25a6.1,6.1,0,0,0-.51-2.52,4.08,4.08,0,0,0-1.43-1.77,3.61,3.61,0,0,0-2.1-.63,3.57,3.57,0,0,0-2.9,1.39,5.64,5.64,0,0,0-1.12,3.65Z" transform="translate(-460.14 -355)"/><path d="M623.68,413.64V402.73h-2v-1.09h2v-1.45a3.93,3.93,0,0,1,.94-2.83,3.44,3.44,0,0,1,2.61-1,5.34,5.34,0,0,1,1.41.18l-.1,1.1a5.1,5.1,0,0,0-1.21-.13,2.2,2.2,0,0,0-1.71.68,2.87,2.87,0,0,0-.61,1.94v1.49h2.86v1.09H625v10.91Z" transform="translate(-460.14 -355)"/><path d="M629.51,407.47a7,7,0,0,1,.68-3.12,5,5,0,0,1,4.67-2.93,4.93,4.93,0,0,1,3.88,1.68,6.49,6.49,0,0,1,1.49,4.45v.28a7.05,7.05,0,0,1-.67,3.13,5,5,0,0,1-1.89,2.15,5.23,5.23,0,0,1-2.79.75,4.92,4.92,0,0,1-3.87-1.68,6.43,6.43,0,0,1-1.5-4.45Zm1.34.36a5.44,5.44,0,0,0,1.11,3.53,3.77,3.77,0,0,0,5.83,0,5.57,5.57,0,0,0,1.12-3.64v-.25a6.1,6.1,0,0,0-.51-2.52,4.15,4.15,0,0,0-1.43-1.77,3.67,3.67,0,0,0-2.11-.63,3.55,3.55,0,0,0-2.89,1.39,5.64,5.64,0,0,0-1.12,3.65Z" transform="translate(-460.14 -355)"/><path d="M648.52,402.77a5.21,5.21,0,0,0-.9-.07,3.24,3.24,0,0,0-2.1.69,3.72,3.72,0,0,0-1.23,2v8.24H643v-12h1.3l0,1.91a3.53,3.53,0,0,1,3.38-2.13,2.14,2.14,0,0,1,.88.15Z" transform="translate(-460.14 -355)"/><path d="M657.46,403.67a4.66,4.66,0,0,1,1.67-1.66,4.4,4.4,0,0,1,2.23-.59,3.58,3.58,0,0,1,2.87,1.09,4.9,4.9,0,0,1,1,3.26v7.87h-1.32v-7.88a3.69,3.69,0,0,0-.69-2.4,2.67,2.67,0,0,0-2.14-.78,3.32,3.32,0,0,0-2.18.77,4.45,4.45,0,0,0-1.4,2.08v8.21h-1.32v-17h1.32Z" transform="translate(-460.14 -355)"/><path d="M670,401.64v13.43a3.65,3.65,0,0,1-.79,2.54,3,3,0,0,1-2.36.88,3.3,3.3,0,0,1-1.16-.21l0-1.09a3.4,3.4,0,0,0,1,.14c1.32,0,2-.75,2-2.27V401.64Zm-.65-4.35a.88.88,0,0,1,.68.26.95.95,0,0,1,0,1.26.91.91,0,0,1-.68.25.86.86,0,0,1-.66-.25.95.95,0,0,1,0-1.26A.83.83,0,0,1,669.38,397.29Z" transform="translate(-460.14 -355)"/><path d="M678.43,413.86a5.26,5.26,0,0,1-2.77-.75,5.14,5.14,0,0,1-1.92-2.1,6.55,6.55,0,0,1-.69-3v-.48a7.07,7.07,0,0,1,.67-3.12,5.29,5.29,0,0,1,1.87-2.17,4.61,4.61,0,0,1,2.6-.8,4.34,4.34,0,0,1,3.46,1.49,6,6,0,0,1,1.28,4.08v.74h-8.56V408a5,5,0,0,0,1.17,3.4,3.73,3.73,0,0,0,3,1.35,4.48,4.48,0,0,0,1.88-.38,4.29,4.29,0,0,0,1.48-1.25l.83.64A4.84,4.84,0,0,1,678.43,413.86Zm-.24-11.31a3.35,3.35,0,0,0-2.53,1.1,5,5,0,0,0-1.24,3h7.19v-.14a4.35,4.35,0,0,0-1-2.82A3.08,3.08,0,0,0,678.19,402.55Z" transform="translate(-460.14 -355)"/><path d="M691.06,402.77a5.1,5.1,0,0,0-.89-.07,3.28,3.28,0,0,0-2.11.69,3.77,3.77,0,0,0-1.22,2v8.24h-1.32v-12h1.3l0,1.91a3.53,3.53,0,0,1,3.38-2.13,2.14,2.14,0,0,1,.88.15Z" transform="translate(-460.14 -355)"/><path d="M695.77,398.57v3.07h2.48v1.09h-2.48v8a2.5,2.5,0,0,0,.36,1.49,1.38,1.38,0,0,0,1.2.49,9.16,9.16,0,0,0,1.08-.11l.05,1.08a4.46,4.46,0,0,1-1.42.18,2.35,2.35,0,0,1-2-.79,3.7,3.7,0,0,1-.62-2.33v-8h-2.21v-1.09h2.21v-3.07Z" transform="translate(-460.14 -355)"/><path d="M705.65,413.86a5.26,5.26,0,0,1-2.77-.75A5.14,5.14,0,0,1,701,411a6.55,6.55,0,0,1-.69-3v-.48a7.21,7.21,0,0,1,.67-3.12,5.29,5.29,0,0,1,1.87-2.17,4.63,4.63,0,0,1,2.6-.8,4.34,4.34,0,0,1,3.46,1.49,6,6,0,0,1,1.28,4.08v.74h-8.56V408a5,5,0,0,0,1.17,3.4,3.73,3.73,0,0,0,3,1.35,4.48,4.48,0,0,0,1.88-.38,4.29,4.29,0,0,0,1.48-1.25l.83.64A4.84,4.84,0,0,1,705.65,413.86Zm-.24-11.31a3.35,3.35,0,0,0-2.53,1.1,5,5,0,0,0-1.24,3h7.19v-.14a4.35,4.35,0,0,0-1-2.82A3.08,3.08,0,0,0,705.41,402.55Z" transform="translate(-460.14 -355)"/><path d="M719.93,410.59a1.89,1.89,0,0,0-.8-1.58,6.15,6.15,0,0,0-2.39-.94,10.72,10.72,0,0,1-2.48-.78,3.21,3.21,0,0,1-1.3-1.07,2.62,2.62,0,0,1-.43-1.53,2.84,2.84,0,0,1,1.19-2.34,4.76,4.76,0,0,1,3-.93,5,5,0,0,1,3.23,1,3.2,3.2,0,0,1,1.21,2.59h-1.33a2.15,2.15,0,0,0-.88-1.75,3.52,3.52,0,0,0-2.23-.7,3.46,3.46,0,0,0-2.1.59,1.78,1.78,0,0,0-.79,1.51,1.63,1.63,0,0,0,.66,1.39,6.88,6.88,0,0,0,2.41.9,11.62,11.62,0,0,1,2.61.88,3.38,3.38,0,0,1,1.3,1.12,2.9,2.9,0,0,1,.42,1.59A2.85,2.85,0,0,1,720,413a5.21,5.21,0,0,1-3.2.91,5.35,5.35,0,0,1-3.4-1,3.12,3.12,0,0,1-1.3-2.57h1.33a2.33,2.33,0,0,0,1,1.82,4,4,0,0,0,2.39.64,3.74,3.74,0,0,0,2.24-.61A1.83,1.83,0,0,0,719.93,410.59Z" transform="translate(-460.14 -355)"/><path d="M728,411.81l3.65-10.17H733l-4.48,12h-1.07l-4.51-12h1.37Z" transform="translate(-460.14 -355)"/><path d="M735.09,398.18a.88.88,0,0,1,.24-.63,1,1,0,0,1,1.34,0,.92.92,0,0,1,0,1.26,1,1,0,0,1-1.34,0A.88.88,0,0,1,735.09,398.18Zm1.56,15.46h-1.33v-12h1.33Z" transform="translate(-460.14 -355)"/><path d="M739.73,407.53a7.22,7.22,0,0,1,1.24-4.46,4,4,0,0,1,3.39-1.65,4.17,4.17,0,0,1,3.73,1.95l.07-1.73h1.24V413.4a5.07,5.07,0,0,1-1.3,3.67,4.66,4.66,0,0,1-3.52,1.35,5.41,5.41,0,0,1-2.39-.56,4.7,4.7,0,0,1-1.79-1.49l.75-.8a4.19,4.19,0,0,0,3.35,1.73,3.42,3.42,0,0,0,2.59-1,3.94,3.94,0,0,0,1-2.72v-1.51a4.3,4.3,0,0,1-3.72,1.77A4,4,0,0,1,741,412.2a7.27,7.27,0,0,1-1.26-4.49Zm1.34.24a6.22,6.22,0,0,0,.92,3.62,3,3,0,0,0,2.59,1.32,3.55,3.55,0,0,0,3.48-2.19v-5.58a3.74,3.74,0,0,0-1.35-1.76,3.61,3.61,0,0,0-2.1-.6,3,3,0,0,0-2.61,1.31A6.71,6.71,0,0,0,741.07,407.77Z" transform="translate(-460.14 -355)"/><path d="M754.92,398.57v3.07h2.49v1.09h-2.49v8a2.5,2.5,0,0,0,.36,1.49,1.39,1.39,0,0,0,1.21.49,8.85,8.85,0,0,0,1.07-.11l.06,1.08a4.5,4.5,0,0,1-1.42.18,2.38,2.38,0,0,1-2-.79,3.76,3.76,0,0,1-.62-2.33v-8h-2.21v-1.09h2.21v-3.07Z" transform="translate(-460.14 -355)"/><path d="M614.31,823.93h-1.54V807.11L607.7,809v-1.44l6.35-2.36h.26Z" transform="translate(-460.14 -355)"/><path d="M632.72,810.07a4.22,4.22,0,0,1-.85,2.6,5,5,0,0,1-2.23,1.69,5.4,5.4,0,0,1,2.59,1.78,4.45,4.45,0,0,1,1,2.84,4.77,4.77,0,0,1-1.63,3.8,6.36,6.36,0,0,1-4.31,1.41,6.42,6.42,0,0,1-4.33-1.4,4.77,4.77,0,0,1-1.62-3.81,4.55,4.55,0,0,1,.94-2.83,5.13,5.13,0,0,1,2.56-1.79,4.78,4.78,0,0,1-2.2-1.69,4.33,4.33,0,0,1-.82-2.6,4.76,4.76,0,0,1,1.49-3.69,6.37,6.37,0,0,1,7.92,0A4.72,4.72,0,0,1,632.72,810.07ZM631.67,819a3.69,3.69,0,0,0-1.25-2.87,5.08,5.08,0,0,0-6.34,0,3.71,3.71,0,0,0-1.23,2.89,3.6,3.6,0,0,0,1.19,2.83,5.41,5.41,0,0,0,6.42,0A3.56,3.56,0,0,0,631.67,819Zm-.49-8.94a3.55,3.55,0,0,0-1.11-2.67,4.33,4.33,0,0,0-5.65,0,3.58,3.58,0,0,0-1.09,2.71,3.42,3.42,0,0,0,1.09,2.64,4.5,4.5,0,0,0,5.66,0A3.43,3.43,0,0,0,631.18,810.06Z" transform="translate(-460.14 -355)"/><path d="M636.37,823a1.07,1.07,0,0,1,.29-.76,1,1,0,0,1,.8-.32,1,1,0,0,1,1.1,1.08,1,1,0,0,1-.29.74,1.13,1.13,0,0,1-.81.28,1.08,1.08,0,0,1-.8-.28A1,1,0,0,1,636.37,823Z" transform="translate(-460.14 -355)"/><path d="M643.58,814.37l.91-9.1h9.33v1.42h-8l-.66,6.31a6,6,0,0,1,3.51-1,5.2,5.2,0,0,1,4,1.64,6.23,6.23,0,0,1,1.5,4.37,6.64,6.64,0,0,1-1.46,4.58,5.28,5.28,0,0,1-4.12,1.63,5.73,5.73,0,0,1-4-1.36,5.63,5.63,0,0,1-1.73-3.81h1.48a4.44,4.44,0,0,0,1.29,2.89,4.14,4.14,0,0,0,2.91,1,3.62,3.62,0,0,0,3-1.27,5.62,5.62,0,0,0,1-3.61,4.89,4.89,0,0,0-1.14-3.35,3.94,3.94,0,0,0-3.11-1.29,6,6,0,0,0-1.9.27,5.3,5.3,0,0,0-1.71,1.07Z" transform="translate(-460.14 -355)"/><path d="M750.52,824.19H738.83V823l6.39-7.25a16.59,16.59,0,0,0,2.21-3,5,5,0,0,0,.61-2.32,3.74,3.74,0,0,0-1-2.8,3.86,3.86,0,0,0-2.86-1,4,4,0,0,0-3,1.21,4.31,4.31,0,0,0-1.16,3.12h-1.53a5.82,5.82,0,0,1,.72-2.87,5.12,5.12,0,0,1,2-2,6,6,0,0,1,3-.74,5.64,5.64,0,0,1,4,1.35,4.78,4.78,0,0,1,1.44,3.67,6.21,6.21,0,0,1-.81,2.85,20.64,20.64,0,0,1-2.87,3.87l-5.2,5.89h9.81Z" transform="translate(-460.14 -355)"/><path d="M754.41,814.63l.91-9.1h9.33V807h-8l-.65,6.31a6.1,6.1,0,0,1,3.51-1,5.19,5.19,0,0,1,4,1.65,6.22,6.22,0,0,1,1.5,4.37,6.57,6.57,0,0,1-1.47,4.57,5.21,5.21,0,0,1-4.11,1.63,5.68,5.68,0,0,1-4-1.36,5.55,5.55,0,0,1-1.73-3.81h1.48a4.37,4.37,0,0,0,1.29,2.89,4.14,4.14,0,0,0,2.91,1,3.67,3.67,0,0,0,3-1.27,5.67,5.67,0,0,0,1-3.62,4.85,4.85,0,0,0-1.14-3.34,3.92,3.92,0,0,0-3.12-1.3,5.76,5.76,0,0,0-1.9.28,5.2,5.2,0,0,0-1.7,1.07Z" transform="translate(-460.14 -355)"/><path d="M858.7,824.67H847v-1.18l6.4-7.26a16.78,16.78,0,0,0,2.2-3,5.08,5.08,0,0,0,.62-2.32,3.77,3.77,0,0,0-1-2.8,3.88,3.88,0,0,0-2.86-1,4.07,4.07,0,0,0-3.05,1.21,4.32,4.32,0,0,0-1.16,3.13H846.6a5.94,5.94,0,0,1,.71-2.88,5.15,5.15,0,0,1,2-2,6,6,0,0,1,3-.73,5.61,5.61,0,0,1,4,1.34,4.75,4.75,0,0,1,1.45,3.67,6.18,6.18,0,0,1-.82,2.86,21.17,21.17,0,0,1-2.86,3.87l-5.21,5.88h9.81Z" transform="translate(-460.14 -355)"/><path d="M862.6,815.1l.91-9.1h9.33v1.43h-8l-.66,6.3a6.1,6.1,0,0,1,3.52-1,5.16,5.16,0,0,1,4,1.64,6.22,6.22,0,0,1,1.5,4.37,6.62,6.62,0,0,1-1.46,4.57,5.25,5.25,0,0,1-4.12,1.63,5.64,5.64,0,0,1-3.94-1.36,5.5,5.5,0,0,1-1.73-3.8h1.47a4.51,4.51,0,0,0,1.29,2.89,4.18,4.18,0,0,0,2.91,1,3.62,3.62,0,0,0,3-1.27,5.65,5.65,0,0,0,1-3.62,4.87,4.87,0,0,0-1.14-3.34,4,4,0,0,0-3.11-1.3,6,6,0,0,0-1.9.28,5.13,5.13,0,0,0-1.71,1.07Z" transform="translate(-460.14 -355)"/><g class="cls-2"><line class="cls-3" x1="290.03" y1="424.57" x2="625.86" y2="424.57"/><line class="cls-6" x1="290.03" y1="424.57" x2="625.86" y2="424.57"/></g><path d="M968.55,814.49h1.59a5.38,5.38,0,0,0,2.31-.47,3.51,3.51,0,0,0,1.5-1.28,3.38,3.38,0,0,0,.52-1.88,3.8,3.8,0,0,0-1-2.8,3.94,3.94,0,0,0-2.91-1,4.18,4.18,0,0,0-2.94,1.06,3.6,3.6,0,0,0-1.15,2.79h-1.54a5.05,5.05,0,0,1,.73-2.65,4.91,4.91,0,0,1,2-1.85,6.21,6.21,0,0,1,2.87-.65,5.6,5.6,0,0,1,4,1.38,5,5,0,0,1,1.46,3.79,4,4,0,0,1-.85,2.48,5.06,5.06,0,0,1-2.34,1.7,4.86,4.86,0,0,1,2.64,1.68,4.53,4.53,0,0,1,.9,2.82,5,5,0,0,1-1.57,3.86,5.88,5.88,0,0,1-4.18,1.46,7,7,0,0,1-3.05-.66,5.14,5.14,0,0,1-2.16-1.87,5.07,5.07,0,0,1-.76-2.79h1.54a3.74,3.74,0,0,0,1.24,2.91,4.61,4.61,0,0,0,3.19,1.12,4.41,4.41,0,0,0,3.1-1,3.82,3.82,0,0,0,1.11-3,3.47,3.47,0,0,0-1.2-2.85,5.44,5.44,0,0,0-3.53-1h-1.54Z" transform="translate(-460.14 -355)"/><path d="M990.94,816.88a10.39,10.39,0,0,1-1.44,6,4.91,4.91,0,0,1-4.27,2,5,5,0,0,1-4.25-2,10,10,0,0,1-1.51-5.84v-3.35a10.18,10.18,0,0,1,1.46-6,5.54,5.54,0,0,1,8.5-.07,9.68,9.68,0,0,1,1.51,5.76Zm-1.53-3.35a9.1,9.1,0,0,0-1-4.85,3.86,3.86,0,0,0-6.29,0,8.73,8.73,0,0,0-1.07,4.73V817a9.08,9.08,0,0,0,1.08,4.88,3.51,3.51,0,0,0,3.15,1.7,3.44,3.44,0,0,0,3.1-1.66,9.06,9.06,0,0,0,1.08-4.84Z" transform="translate(-460.14 -355)"/><path d="M1000.56,815.17h5.68v1.44h-5.68v6.17H999v-6.17h-5.57v-1.44H999v-6h1.55Z" transform="translate(-460.14 -355)"/><g class="cls-2"><line class="cls-3" x1="53.76" y1="424.57" x2="287.84" y2="424.57"/><line class="cls-6" x1="53.76" y1="424.57" x2="287.84" y2="424.57"/><path class="cls-5" d="M517.13,389.3l12.48,21.62a5.44,5.44,0,0,1-4.71,8.16h-25a5.44,5.44,0,0,1-4.71-8.16l12.48-21.62a5.44,5.44,0,0,1,9.42,0" transform="translate(-460.14 -355)"/></g></svg>