<?xml version="1.0" encoding="utf-8"?>
<!-- Generator: Adobe Illustrator 24.0.2, SVG Export Plug-In . SVG Version: 6.00 Build 0)  -->
<svg version="1.1" id="Lag_1" xmlns="http://www.w3.org/2000/svg" xmlns:xlink="http://www.w3.org/1999/xlink" x="0px" y="0px"
	 viewBox="0 0 1177.7 418" style="enable-background:new 0 0 1177.7 418;" xml:space="preserve">
<style type="text/css">
	.st0{fill:#D00A10;}
	.st1{fill:#002036;}
	.st2{fill:#8F9DA7;}
	.st3{fill:#002136;}
	.st4{fill:#012137;}
	.st5{fill:#FEFEFE;}
	.st6{fill:none;}
	.st7{enable-background:new    ;}
	.st8{fill:#565656;}
</style>
<title>Hjerteforeningen logo</title>
<path class="st0" d="M156.7,0c9.7,2,19.6,3.4,29.1,6.1c54.4,15.4,95.8,64.7,102,121c8.5,77-41.1,144.6-117,159.6
	c-4.7,0.9-9.4,1.6-14.1,2.4h-26c-0.9-0.4-1.7-0.7-2.7-0.9c-78-9-134-77.5-127.5-156.4C5.3,72.9,46.8,22.1,103.7,6
	c9.2-2.6,18.7-4,28-6H156.7z M143.7,15.3c-3.2,0.2-7.2,0.4-11.2,0.7c-1.2,0.1-2.3,0.3-3.5,0.5c-37.5,5.8-67.1,24.7-89.3,55.1
	c-20.2,27.7-29.2,58.8-22.3,92.8c9,44.5,35.9,76.1,75.9,96.6c29.9,15.3,60.9,16.8,92.3,4.5c21.4-8.3,40.3-21.8,55.1-39.4
	c25.2-29.6,37.6-63.1,31-102.4C261.9,64.5,204.4,15.4,143.7,15.3z"/>
<path class="st1" d="M1177.7,162h-115.9V18.1c0.8-0.1,1.7-0.2,2.5-0.2h109.2c1,0,1.9,0.1,3,0.2v27.6h-81.6v29.4h65.6v28.4H1095v30.3
	h6.8l76,0.2L1177.7,162L1177.7,162z"/>
<path class="st1" d="M1177.7,271c-8,1.5-13.4-1.5-18.3-8.1c-10.2-13.5-21.4-26.3-32.2-39.4c-0.7-0.8-1.5-1.6-2.9-3v50.3H1111v-71.9
	c3.6,0,7.1-0.3,10.5,0.2c1.7,0.2,3.4,1.7,4.6,3.1c11.5,13.8,22.9,27.7,34.3,41.6c1,1.3,2.2,2.5,3.9,4.5V199h13.4L1177.7,271
	L1177.7,271z"/>
<path class="st2" d="M1177.7,46l-1.2-0.3V18.1c-1.2-0.1-2.1-0.2-3-0.2h-109.2c-0.8,0-1.7,0.1-2.5,0.2c1.1-0.4,2.2-1.1,3.3-1.1
	c37.5,0,75.1,0,112.6,0L1177.7,46L1177.7,46z"/>
<path class="st1" d="M811.8,116.6v44.9H779V17.7c0.3-0.3,0.4-0.5,0.5-0.5c28,0.3,56-0.4,83.9,1c24.1,1.3,41.9,17.6,44.9,39.6
	c2.6,18.8-0.7,38.4-25.6,51.9l35.6,52.2c-12.6,0-24.3,0.1-36-0.2c-1.3,0-2.9-1.8-3.8-3.2c-8.3-12.6-16.6-25.3-24.7-38.1
	c-1.8-2.8-3.6-4.1-7.1-4C835.3,116.8,823.8,116.6,811.8,116.6z M811.9,88c14.4,0,28.4,0.4,42.3-0.1c12.5-0.5,21-8.5,21.5-19.4
	c0.6-12-5.8-20.2-19.2-21.7c-11.2-1.3-22.6-0.7-33.9-0.9c-3.6-0.1-7.2,0-10.8,0V88H811.9z"/>
<path class="st1" d="M343.2,17.6h32.6v56.8h67V17.7h32.9v144.1h-32.9v-57.6h-66.7v57.5h-33L343.2,17.6z"/>
<path class="st1" d="M746.6,17.7v28.2h-82.1v29h65.8v28.4h-65.7v30.5h82.7v28H631.7V17.7H746.6z"/>
<path class="st1" d="M998.4,162h-32.2c-0.8-0.1-1.5-0.2-2.3-0.3V46.9h-46.5V17.8h126.2v29h-45.2L998.4,162L998.4,162z"/>
<path class="st1" d="M563.4,46.9h-42.3V17.7h76.1V23c0,29.2,0.1,58.3-0.1,87.5c0.1,6-0.6,12-1.9,17.8c-3.8,15.9-13.5,27.2-29.2,32.1
	c-24.4,7.6-47.3,4.7-67.5-12.3c-1.3-1.1-2.4-2.3-3.6-3.5c-0.4-0.5-0.9-1-1.3-1.5l19.7-20.3c5.2,3.6,9.9,7.8,15.3,10.5
	c17.3,8.7,32.5,0.5,34-18.6c1-12.4,0.4-25,0.5-37.5C563.4,67.2,563.4,57.4,563.4,46.9z"/>
<path class="st1" d="M748.1,248.3v-49h13.2v71.4c-6.6,1.2-11.8,0.6-16.4-5.5c-10.8-14.2-22.5-27.6-33.8-41.4c-0.8-1-1.7-1.8-3.1-3.4
	v50.4h-13v-71.9c2.6,0,5.2,0.2,7.8,0c3.1-0.3,5.1,0.8,7.1,3.3c11.2,13.9,22.6,27.6,33.9,41.3C744.9,244.8,746,246,748.1,248.3z"/>
<path class="st1" d="M889.5,248.6v-49.4h12.9v71.5c-7.2,1.6-12.3-0.3-17-6.5c-10.4-13.8-21.8-26.9-32.9-40.2c-0.8-1-1.7-1.9-3.2-3.6
	v50.4H836V199c3.5,0,7-0.3,10.4,0.1c1.7,0.2,3.4,1.7,4.6,3.1c11.5,13.8,22.9,27.7,34.4,41.6C886.4,245,887.5,246.3,889.5,248.6z"/>
<path class="st1" d="M564.4,244.1l20.4,26.9c-5.4,0-9.9,0.2-14.5-0.1c-1.3-0.1-2.7-1.6-3.7-2.8c-4.8-6.2-9.6-12.4-14-18.8
	c-1.4-2.4-4.2-3.8-7-3.4c-3.9,0.3-7.9,0.1-12.3,0.1v24.8h-13.6v-71c14.5,0,28.8-1,42.9,0.3c12.2,1.1,18.9,9.2,19.8,20.2
	c0.9,10.6-4.7,18.5-16.2,22.9C565.6,243.4,565,243.8,564.4,244.1z M533.5,210.9v23.3c8.2,0,16.2,0.5,24.1-0.2
	c7.2-0.6,11.2-5.6,11.1-11.8s-4.3-10.7-11.7-11.2C549.3,210.5,541.7,210.9,533.5,210.9z"/>
<path class="st1" d="M454.8,197.8c23.5,0,40.5,16.6,39.9,38.6c-0.5,17.1-13.1,31.2-31.4,35.1c-20,4.3-40.1-5.9-46.6-23.7
	C407.5,222.6,426.4,197.7,454.8,197.8z M454.4,209.3c-14.6,0.1-25.7,11.2-25.7,25.6c-0.1,14.1,11.3,25.7,25.4,25.8
	c0.2,0,0.5,0,0.7,0c14.5-0.1,25.8-11.2,25.8-25.6c0-14.2-11.6-25.8-25.8-25.8C454.6,209.3,454.5,209.3,454.4,209.3z"/>
<path class="st1" d="M986.8,241.9h-19v-10.8h32.2c0,9.6,0.1,19-0.1,28.4c0,1.2-1.3,2.6-2.4,3.4c-13.8,9.5-28.8,12-44.7,6.9
	c-17.1-5.5-26.3-21.3-24.2-40c1.9-16.3,16.6-30.3,33.7-31.8c12.6-1.1,24.6,0.6,34.8,9.6l-7.4,8.4c-6.4-2.2-12.3-5-18.4-6.2
	c-10.4-1.9-19.1,2-24.8,11.1s-5.7,18.8-0.3,27.9c5.5,9.3,14.5,12.5,24.8,11.7C985.6,259.5,987.4,257.1,986.8,241.9z"/>
<path class="st1" d="M624.5,210.1v18.8h37.9v11.3h-37.9v19.4h43.3v11.2h-56.9v-71.6h56.4v10.9H624.5z"/>
<path class="st1" d="M1079.4,228.9v11.2h-38.2v19.3h43.3v11.2h-56.7v-71.4h56.3v10.9h-43v18.7L1079.4,228.9L1079.4,228.9z"/>
<path class="st3" d="M343.1,199.1h56.5v11.3h-42.8V230h38v11.7h-38.2v29h-13.4v-71.6H343.1z"/>
<path class="st4" d="M805.3,270.8H792v-71.6h13.2L805.3,270.8L805.3,270.8z"/>
<path class="st5" d="M143.7,15.3c60.7,0,118.2,49.2,128.1,108.5c6.6,39.3-5.9,72.9-31,102.4c-14.8,17.5-33.7,31.1-55.1,39.4
	c-31.4,12.2-62.4,10.7-92.3-4.5c-40-20.4-66.8-52-75.9-96.6c-6.9-34,2.1-65.1,22.3-92.9C61.9,41.2,91.5,22.3,129,16.5
	c1.1-0.2,2.3-0.4,3.5-0.5C136.5,15.8,140.5,15.5,143.7,15.3z M144.1,117.8c-5.8-8.9-12.9-16.7-22.9-21.3
	c-19.4-8.7-39.3,0.7-44.6,21.3c-3.3,12.9-0.6,25.2,4.8,36.9c13.6,29.6,37.5,49.9,63.1,68.9c4-3,7.8-5.7,11.4-8.6
	c18.5-14.7,35.5-30.8,47.4-51.5c6.6-11.6,11-23.8,10.5-37.4c-0.7-17.6-12.1-30.7-28.6-32.5c-11.3-1.2-20.9,3.3-29,10.9
	C151.7,108.4,148.1,113.2,144.1,117.8L144.1,117.8z M135.6,263c1.4-12.5,3.1-24.3-10.7-30.8c-1.8-0.8-3.2-2.4-4.7-3.7
	c-21.9-17.9-42-37.5-55.6-62.8c-7.4-13.9-12.2-28.5-11-44.4C55,102.5,63.6,88,81,79.9s34-5.4,49.3,5.9l5.2,3.9V26.2
	c-1.4,0-2.1-0.1-2.8,0c-33.2,4.2-60.2,19.6-81,45.5c-21.7,27.1-31,58-24.1,92.5c6.5,33.1,25.3,58.5,52.5,78
	C96.4,254,115.5,261.2,135.6,263z M153,89.9c2.4-1.9,4.2-3.4,6.1-4.8c9.8-7.1,20.7-10.9,32.8-9.6c27.7,3.1,46.2,26.8,43.4,54.8
	c-1.9,19.7-10.3,36.7-21.7,52.3c-15.4,21.3-34.8,38.5-55.6,54.2c-1.8,1.4-4.7,3-4.8,4.7c-0.5,7-0.2,14.1-0.2,21.2
	c53.8-2.9,111.1-57.7,110.2-119.7c-1.1-68-61-114.6-110.1-116.5v63.4L153,89.9L153,89.9z"/>
<path class="st0" d="M144,117.8c4-4.5,7.6-9.4,12-13.4c8.1-7.6,17.7-12,29-10.9c16.5,1.7,27.9,14.9,28.6,32.5
	c0.6,13.6-3.8,25.9-10.5,37.4c-11.9,20.8-28.9,36.9-47.4,51.5c-3.6,2.9-7.4,5.6-11.4,8.6c-25.6-19-49.5-39.3-63.1-68.9
	c-5.4-11.7-8.1-24-4.8-36.9c5.3-20.5,25.2-30,44.6-21.3C131.2,101,138.2,108.9,144,117.8z"/>
<path class="st0" d="M135.6,263c-20-1.8-39.1-9-55.4-20.8c-27.1-19.4-45.9-44.8-52.5-78c-6.8-34.5,2.5-65.4,24.1-92.5
	c20.7-25.9,47.8-41.3,81-45.5c0.7-0.1,1.3,0,2.8,0v63.4l-5.2-3.9c-15.3-11.3-31.9-14-49.3-5.9s-26,22.6-27.5,41.5
	c-1.2,16,3.5,30.6,11,44.4c13.6,25.3,33.7,44.8,55.6,62.8c1.5,1.3,3,2.8,4.7,3.7C138.7,238.7,137,250.5,135.6,263z"/>
<path class="st0" d="M153,89.9V26.5C202.1,28.3,262,75,263.1,143c1,62.1-56.5,116.8-110.2,119.7c0-7.1-0.3-14.2,0.2-21.2
	c0.1-1.7,3-3.3,4.8-4.7c20.8-15.7,40.2-32.9,55.6-54.2c11.4-15.7,19.7-32.6,21.7-52.3c2.8-27.9-15.8-51.7-43.4-54.8
	c-12.1-1.4-23,2.5-32.8,9.6C157.2,86.5,155.4,88,153,89.9z"/>
<rect x="378.4" y="305.9" class="st6" width="801.2" height="61.9"/>
<g class="st7">
	<path class="st8" d="M357.8,322.3l-5.8,6.1v16.1h-6.3v-47.7h6.3v23.6l21.2-23.6h7.6L362,317.9l20.3,26.7h-7.5L357.8,322.3z"/>
	<path class="st8" d="M423.6,345.2c-5.7,0-10-2-13-5.9c-1.4,1.9-3.4,3.3-5.8,4.4c-2.5,1-5.2,1.5-8.3,1.5c-3.7,0-6.5-0.9-8.6-2.8
		c-2.1-1.9-3.1-4.5-3.1-7.8c0-3.4,1.2-6.1,3.7-8c2.5-1.9,6.1-2.9,11-2.9h7.3v-2.8c0-2.3-0.6-4.2-1.8-5.5c-1.2-1.3-2.9-2-5.2-2
		c-2.3,0-4.2,0.6-5.7,1.8c-1.5,1.2-2.3,2.7-2.3,4.5l-6-0.6c0-3.1,1.3-5.7,4-7.7c2.6-2,6-3,10.1-3c2.5,0,4.7,0.5,6.7,1.4
		s3.4,2.3,4.5,4.1c1.4-1.7,3-3.1,4.9-4c1.9-1,4-1.4,6.3-1.4c4.6,0,8.2,1.4,10.7,4.2c2.5,2.8,3.8,6.8,3.8,11.9v3.8h-23.9
		c0.2,3.8,1.2,6.8,3.1,8.9c1.9,2.1,4.5,3.1,7.7,3.1c3.2,0,6.2-0.8,8.8-2.5l1.5-1l2.1,4.5C432.6,343.9,428.4,345.2,423.6,345.2z
		 M397.6,340.3c1.6,0,3.2-0.4,5-1.2c1.7-0.8,3.1-1.8,4.2-3v-7.8h-7.5c-2.6,0-4.6,0.7-6.1,1.9c-1.5,1.2-2.3,2.7-2.3,4.5
		c0,1.7,0.6,3,1.7,4S395.4,340.3,397.6,340.3z M422.1,313.4c-2.5,0-4.6,0.9-6.2,2.8c-1.6,1.9-2.6,4.3-3,7.4h17.6v-1
		c0-2.9-0.7-5.1-2.2-6.7C426.9,314.2,424.8,313.4,422.1,313.4z"/>
	<path class="st8" d="M460.6,314.5c-0.9-0.2-1.9-0.2-3-0.2c-4,0-6.7,1.7-8.1,5.1v25.2h-6.1v-35.5h5.9l0.1,4.1c2-3.2,4.8-4.8,8.5-4.8
		c1.2,0,2.1,0.2,2.7,0.5V314.5z"/>
	<path class="st8" d="M472.8,344.5h-6.1v-50.4h6.1V344.5z"/>
	<path class="st8" d="M482.5,299.6c0-1,0.3-1.8,0.9-2.5c0.6-0.7,1.5-1,2.7-1c1.2,0,2.1,0.3,2.7,1c0.6,0.7,0.9,1.5,0.9,2.5
		s-0.3,1.8-0.9,2.5c-0.6,0.7-1.5,1-2.7,1c-1.2,0-2.1-0.3-2.7-1C482.8,301.5,482.5,300.6,482.5,299.6z M489.1,344.5H483v-35.5h6.1
		V344.5z"/>
	<path class="st8" d="M497.4,326.5c0-5.5,1.3-9.9,3.8-13.2s5.9-4.9,10.2-4.9c4.3,0,7.7,1.5,10.1,4.6l0.3-3.9h5.5v34.6
		c0,4.6-1.4,8.2-4.1,10.9s-6.4,4-11,4c-2.6,0-5.1-0.5-7.5-1.6c-2.4-1.1-4.3-2.6-5.6-4.5l3.1-3.6c2.6,3.2,5.8,4.8,9.5,4.8
		c3,0,5.3-0.8,6.9-2.5s2.5-4,2.5-7v-3c-2.4,2.8-5.7,4.2-9.9,4.2c-4.2,0-7.5-1.7-10.1-5C498.6,336.8,497.4,332.3,497.4,326.5z
		 M503.4,327.2c0,4,0.8,7.1,2.5,9.4c1.6,2.3,3.9,3.4,6.9,3.4c3.8,0,6.6-1.7,8.4-5.2v-16.2c-1.9-3.4-4.6-5.1-8.4-5.1
		c-3,0-5.3,1.1-6.9,3.4C504.3,319.3,503.4,322.7,503.4,327.2z"/>
	<path class="st8" d="M542.5,313.4c2.7-3.3,6.2-5,10.5-5c7.5,0,11.3,4.2,11.3,12.7v23.4h-6.1v-23.5c0-2.6-0.6-4.4-1.8-5.7
		c-1.1-1.2-2.9-1.8-5.4-1.8c-2,0-3.7,0.5-5.2,1.6c-1.5,1-2.6,2.4-3.5,4.1v25.3h-6.1v-50.4h6.1V313.4z"/>
	<path class="st8" d="M588.2,345.2c-4.8,0-8.7-1.6-11.7-4.7c-3-3.2-4.5-7.4-4.5-12.7v-1.1c0-3.5,0.7-6.7,2-9.4
		c1.3-2.8,3.2-4.9,5.6-6.5c2.4-1.6,5-2.3,7.9-2.3c4.6,0,8.2,1.5,10.8,4.6c2.6,3,3.8,7.4,3.8,13v2.5h-24c0.1,3.5,1.1,6.3,3.1,8.5
		c2,2.2,4.4,3.2,7.5,3.2c2.1,0,4-0.4,5.4-1.3s2.8-2,3.9-3.5l3.7,2.9C598.6,342.9,594.1,345.2,588.2,345.2z M587.4,313.4
		c-2.4,0-4.5,0.9-6.2,2.7c-1.7,1.8-2.7,4.3-3.1,7.5h17.8v-0.5c-0.2-3.1-1-5.5-2.5-7.2C592,314.2,590,313.4,587.4,313.4z"/>
	<path class="st8" d="M607.6,326.5c0-5.4,1.3-9.8,3.9-13.1c2.6-3.3,6-5,10.1-5c4.2,0,7.4,1.4,9.9,4.3v-18.5h6.1v50.4h-5.6l-0.3-3.8
		c-2.4,3-5.8,4.5-10.1,4.5c-4.1,0-7.5-1.7-10.1-5c-2.6-3.4-3.9-7.8-3.9-13.2V326.5z M613.6,327.2c0,4,0.8,7.2,2.5,9.4
		c1.7,2.3,4,3.4,6.9,3.4c3.8,0,6.7-1.7,8.4-5.2v-16.3c-1.8-3.3-4.6-5-8.4-5c-3,0-5.3,1.1-7,3.4S613.6,322.7,613.6,327.2z"/>
	<path class="st8" d="M678.2,345.2c-4.8,0-8.7-1.6-11.7-4.7c-3-3.2-4.5-7.4-4.5-12.7v-1.1c0-3.5,0.7-6.7,2-9.4
		c1.3-2.8,3.2-4.9,5.6-6.5c2.4-1.6,5-2.3,7.9-2.3c4.6,0,8.2,1.5,10.8,4.6c2.6,3,3.8,7.4,3.8,13v2.5h-24c0.1,3.5,1.1,6.3,3.1,8.5
		s4.4,3.2,7.5,3.2c2.1,0,4-0.4,5.4-1.3s2.8-2,3.9-3.5l3.7,2.9C688.6,342.9,684.2,345.2,678.2,345.2z M677.5,313.4
		c-2.4,0-4.5,0.9-6.2,2.7c-1.7,1.8-2.7,4.3-3.1,7.5H686v-0.5c-0.2-3.1-1-5.5-2.5-7.2C682,314.2,680,313.4,677.5,313.4z"/>
	<path class="st8" d="M716.2,314.5c-0.9-0.2-1.9-0.2-3-0.2c-4,0-6.7,1.7-8.1,5.1v25.2h-6.1v-35.5h5.9l0.1,4.1c2-3.2,4.8-4.8,8.5-4.8
		c1.2,0,2.1,0.2,2.7,0.5V314.5z"/>
	<path class="st8" d="M737,326.5c0-5.5,1.3-9.9,3.8-13.2s5.9-4.9,10.2-4.9c4.3,0,7.7,1.5,10.1,4.6l0.3-3.9h5.5v34.6
		c0,4.6-1.4,8.2-4.1,10.9s-6.4,4-11,4c-2.6,0-5.1-0.5-7.5-1.6c-2.4-1.1-4.3-2.6-5.6-4.5l3.1-3.6c2.6,3.2,5.8,4.8,9.5,4.8
		c3,0,5.3-0.8,6.9-2.5s2.5-4,2.5-7v-3c-2.4,2.8-5.7,4.2-9.9,4.2c-4.2,0-7.5-1.7-10.1-5C738.3,336.8,737,332.3,737,326.5z
		 M743.1,327.2c0,4,0.8,7.1,2.5,9.4c1.6,2.3,3.9,3.4,6.9,3.4c3.8,0,6.6-1.7,8.4-5.2v-16.2c-1.9-3.4-4.6-5.1-8.4-5.1
		c-3,0-5.3,1.1-6.9,3.4S743.1,322.7,743.1,327.2z"/>
	<path class="st8" d="M774.5,326.5c0-3.5,0.7-6.6,2-9.4c1.4-2.8,3.3-4.9,5.7-6.4c2.4-1.5,5.2-2.3,8.3-2.3c4.8,0,8.7,1.7,11.7,5
		c3,3.3,4.5,7.8,4.5,13.3v0.4c0,3.5-0.7,6.6-2,9.3c-1.3,2.7-3.2,4.9-5.7,6.4c-2.5,1.5-5.3,2.3-8.5,2.3c-4.8,0-8.7-1.7-11.7-5
		c-3-3.3-4.5-7.8-4.5-13.3V326.5z M780.6,327.2c0,3.9,0.9,7.1,2.7,9.5c1.8,2.4,4.3,3.6,7.3,3.6c3.1,0,5.5-1.2,7.3-3.6
		s2.7-5.8,2.7-10.1c0-3.9-0.9-7-2.8-9.5c-1.8-2.4-4.3-3.6-7.4-3.6c-3,0-5.4,1.2-7.2,3.6S780.6,322.8,780.6,327.2z"/>
	<path class="st8" d="M812.9,326.5c0-5.4,1.3-9.8,3.9-13.1c2.6-3.3,6-5,10.1-5c4.2,0,7.4,1.4,9.9,4.3v-18.5h6.1v50.4h-5.6l-0.3-3.8
		c-2.4,3-5.8,4.5-10.1,4.5c-4.1,0-7.5-1.7-10-5c-2.6-3.4-3.9-7.8-3.9-13.2V326.5z M819,327.2c0,4,0.8,7.2,2.5,9.4
		c1.7,2.3,4,3.4,6.9,3.4c3.8,0,6.7-1.7,8.4-5.2v-16.3c-1.8-3.3-4.6-5-8.4-5c-3,0-5.3,1.1-7,3.4C819.8,319.3,819,322.7,819,327.2z"/>
	<path class="st8" d="M860.5,300.5v8.6h6.6v4.7h-6.6v22c0,1.4,0.3,2.5,0.9,3.2s1.6,1.1,3,1.1c0.7,0,1.7-0.1,2.9-0.4v4.9
		c-1.6,0.4-3.1,0.7-4.7,0.7c-2.7,0-4.8-0.8-6.1-2.5c-1.4-1.6-2.1-4-2.1-7v-22H848v-4.7h6.5v-8.6H860.5z"/>
	<path class="st8" d="M893.8,344.5v-30.8h-5.6v-4.7h5.6v-3.6c0-3.8,1-6.7,3-8.8c2-2.1,4.9-3.1,8.6-3.1c1.4,0,2.8,0.2,4.2,0.6
		l-0.3,4.9c-1-0.2-2.1-0.3-3.3-0.3c-2,0-3.5,0.6-4.6,1.7s-1.6,2.8-1.6,4.9v3.8h7.6v4.7h-7.6v30.8H893.8z"/>
	<path class="st8" d="M912.5,326.5c0-3.5,0.7-6.6,2-9.4c1.4-2.8,3.3-4.9,5.7-6.4c2.4-1.5,5.2-2.3,8.3-2.3c4.8,0,8.7,1.7,11.7,5
		c3,3.3,4.5,7.8,4.5,13.3v0.4c0,3.5-0.7,6.6-2,9.3c-1.3,2.7-3.2,4.9-5.7,6.4c-2.5,1.5-5.3,2.3-8.5,2.3c-4.8,0-8.7-1.7-11.7-5
		c-3-3.3-4.5-7.8-4.5-13.3V326.5z M918.6,327.2c0,3.9,0.9,7.1,2.7,9.5c1.8,2.4,4.3,3.6,7.3,3.6c3.1,0,5.5-1.2,7.3-3.6
		s2.7-5.8,2.7-10.1c0-3.9-0.9-7-2.8-9.5c-1.8-2.4-4.3-3.6-7.4-3.6c-3,0-5.4,1.2-7.2,3.6S918.6,322.8,918.6,327.2z"/>
	<path class="st8" d="M969.6,314.5c-0.9-0.2-1.9-0.2-3-0.2c-4,0-6.7,1.7-8.1,5.1v25.2h-6.1v-35.5h5.9l0.1,4.1c2-3.2,4.8-4.8,8.5-4.8
		c1.2,0,2.1,0.2,2.7,0.5V314.5z"/>
	<path class="st8" d="M997.9,313.4c2.7-3.3,6.2-5,10.5-5c7.5,0,11.3,4.2,11.3,12.7v23.4h-6.1v-23.5c0-2.6-0.6-4.4-1.8-5.7
		c-1.1-1.2-2.9-1.8-5.4-1.8c-2,0-3.7,0.5-5.2,1.6c-1.5,1-2.6,2.4-3.5,4.1v25.3h-6.1v-50.4h6.1V313.4z"/>
	<path class="st8" d="M1035,309.1v39.6c0,6.8-3.1,10.2-9.3,10.2c-1.3,0-2.6-0.2-3.7-0.6v-4.8c0.7,0.2,1.6,0.3,2.8,0.3
		c1.4,0,2.4-0.4,3.1-1.1c0.7-0.7,1.1-2,1.1-3.8v-39.7H1035z M1028.4,299.6c0-1,0.3-1.8,0.9-2.5s1.5-1,2.6-1c1.2,0,2.1,0.3,2.7,1
		c0.6,0.7,0.9,1.5,0.9,2.5s-0.3,1.8-0.9,2.5c-0.6,0.7-1.5,1-2.7,1s-2.1-0.3-2.7-1C1028.6,301.5,1028.4,300.6,1028.4,299.6z"/>
	<path class="st8" d="M1059.5,345.2c-4.8,0-8.7-1.6-11.7-4.7c-3-3.2-4.5-7.4-4.5-12.7v-1.1c0-3.5,0.7-6.7,2-9.4
		c1.3-2.8,3.2-4.9,5.6-6.5c2.4-1.6,5-2.3,7.9-2.3c4.6,0,8.2,1.5,10.8,4.6c2.6,3,3.8,7.4,3.8,13v2.5h-24c0.1,3.5,1.1,6.3,3.1,8.5
		c2,2.2,4.4,3.2,7.5,3.2c2.1,0,4-0.4,5.4-1.3s2.8-2,3.9-3.5l3.7,2.9C1069.9,342.9,1065.5,345.2,1059.5,345.2z M1058.8,313.4
		c-2.4,0-4.5,0.9-6.2,2.7c-1.7,1.8-2.7,4.3-3.1,7.5h17.8v-0.5c-0.2-3.1-1-5.5-2.5-7.2C1063.3,314.2,1061.3,313.4,1058.8,313.4z"/>
	<path class="st8" d="M1097.5,314.5c-0.9-0.2-1.9-0.2-3-0.2c-4,0-6.7,1.7-8.1,5.1v25.2h-6.1v-35.5h5.9l0.1,4.1
		c2-3.2,4.8-4.8,8.5-4.8c1.2,0,2.1,0.2,2.7,0.5V314.5z"/>
	<path class="st8" d="M1113,300.5v8.6h6.6v4.7h-6.6v22c0,1.4,0.3,2.5,0.9,3.2s1.6,1.1,3,1.1c0.7,0,1.7-0.1,2.9-0.4v4.9
		c-1.6,0.4-3.1,0.7-4.7,0.7c-2.7,0-4.8-0.8-6.1-2.5c-1.4-1.6-2.1-4-2.1-7v-22h-6.5v-4.7h6.5v-8.6H1113z"/>
	<path class="st8" d="M1141.4,345.2c-4.8,0-8.7-1.6-11.7-4.7c-3-3.2-4.5-7.4-4.5-12.7v-1.1c0-3.5,0.7-6.7,2-9.4
		c1.3-2.8,3.2-4.9,5.6-6.5c2.4-1.6,5-2.3,7.9-2.3c4.6,0,8.2,1.5,10.8,4.6c2.6,3,3.8,7.4,3.8,13v2.5h-24c0.1,3.5,1.1,6.3,3.1,8.5
		c2,2.2,4.4,3.2,7.5,3.2c2.1,0,4-0.4,5.4-1.3s2.8-2,3.9-3.5l3.7,2.9C1151.8,342.9,1147.3,345.2,1141.4,345.2z M1140.6,313.4
		c-2.4,0-4.5,0.9-6.2,2.7c-1.7,1.8-2.7,4.3-3.1,7.5h17.8v-0.5c-0.2-3.1-1-5.5-2.5-7.2C1145.2,314.2,1143.2,313.4,1140.6,313.4z"/>
	<path class="st8" d="M1170.5,300.5v8.6h6.6v4.7h-6.6v22c0,1.4,0.3,2.5,0.9,3.2s1.6,1.1,3,1.1c0.7,0,1.7-0.1,2.9-0.4v4.9
		c-1.6,0.4-3.1,0.7-4.7,0.7c-2.7,0-4.8-0.8-6.1-2.5c-1.4-1.6-2.1-4-2.1-7v-22h-6.5v-4.7h6.5v-8.6H1170.5z"/>
</g>
<rect x="604.5" y="557.8" class="st6" width="240.5" height="18.4"/>
</svg>
