<svg id="Lag_1" data-name="Lag 1" xmlns="http://www.w3.org/2000/svg" viewBox="0 0 321.26 321.5"><defs><style>.cls-1{fill:#d00a10;}.cls-2{fill:#fff;}</style></defs><title>logo3</title><path class="cls-1" d="M1107.52,379.73c9.7,2,19.57,3.41,29.07,6.11,54.42,15.41,95.83,64.68,102.05,121,8.52,77-41.06,144.61-117,159.55-4.68.92-9.39,1.59-14.09,2.38h-26a13.4,13.4,0,0,0-2.67-.92c-78.06-8.92-134-77.45-127.54-156.27,4.84-58.93,46.34-109.73,103.16-125.85,9.17-2.6,18.69-4,28-6Zm-13,15.32c-3.22.2-7.21.43-11.2.71-1.16.08-2.31.28-3.47.46-37.49,5.85-67.12,24.73-89.28,55.12-20.2,27.71-29.2,58.86-22.3,92.85,9,44.55,35.9,76.13,75.88,96.58,29.87,15.27,60.89,16.74,92.28,4.54A136.65,136.65,0,0,0,1191.55,606c25.18-29.56,37.62-63.07,31-102.43C1212.7,444.23,1155.16,395.09,1094.51,395.05Z" transform="translate(-934.57 -363.48)"/><path class="cls-2" d="M1108.91,363.48c10.79,2.23,21.76,3.79,32.34,6.79,60.54,17.15,106.6,72,113.52,134.57,9.48,85.66-45.68,160.87-130.19,177.5-5.2,1-10.45,1.77-15.67,2.64H1080a14.63,14.63,0,0,0-3-1C990.17,674,927.94,597.8,935.13,510.11c5.38-65.55,51.55-122.07,114.76-140,10.2-2.9,20.79-4.45,31.2-6.63Zm-14.48,17c-3.58.23-8,.48-12.46.79-1.29.09-2.57.31-3.85.51-41.71,6.51-74.68,27.52-99.33,61.32C956.32,474,946.3,508.62,954,546.44c10.06,49.56,39.94,84.69,84.41,107.43,33.23,17,67.74,18.63,102.66,5.06a152.09,152.09,0,0,0,61.32-43.78c28-32.89,41.86-70.18,34.55-114C1225.92,435.24,1161.9,380.56,1094.43,380.52Z" transform="translate(-934.57 -363.48)"/><path class="cls-2" d="M1094.51,395.05c60.65,0,118.19,49.18,128.09,108.47,6.57,39.36-5.87,72.87-31,102.43a136.65,136.65,0,0,1-55.13,39.36c-31.39,12.2-62.41,10.73-92.28-4.54-40-20.45-66.83-52-75.88-96.58-6.9-34,2.1-65.14,22.3-92.85,22.16-30.39,51.79-49.27,89.28-55.12,1.16-.18,2.31-.38,3.47-.46C1087.3,395.48,1091.29,395.25,1094.51,395.05Zm.34,102.43c-5.8-8.88-12.87-16.7-22.94-21.25-19.38-8.73-39.28.71-44.6,21.25-3.33,12.89-.64,25.17,4.75,36.88,13.64,29.61,37.52,49.88,63.1,68.88,4-3,7.79-5.7,11.43-8.59,18.5-14.68,35.49-30.78,47.37-51.53,6.62-11.58,11-23.85,10.47-37.45-.72-17.59-12.09-30.74-28.62-32.47-11.3-1.19-20.93,3.28-29,10.86C1102.49,488.13,1098.86,492.94,1094.85,497.48Zm-8.47,145.24c1.4-12.45,3.09-24.26-10.73-30.76-1.76-.83-3.18-2.4-4.72-3.66-21.91-17.93-42-37.48-55.57-62.78-7.43-13.85-12.17-28.45-11-44.42,1.44-18.89,10.07-33.37,27.45-41.53s34-5.44,49.3,5.86l5.23,3.89V406c-1.42,0-2.09-.07-2.75,0-33.16,4.18-60.23,19.61-81,45.52-21.66,27.07-31,58-24.14,92.47,6.55,33.13,25.31,58.53,52.46,77.95A111,111,0,0,0,1086.38,642.72Zm17.45-173.13c2.43-1.9,4.22-3.38,6.09-4.75,9.76-7.14,20.64-10.94,32.75-9.59,27.67,3.08,46.18,26.83,43.43,54.76-1.94,19.71-10.28,36.65-21.66,52.34-15.41,21.25-34.78,38.47-55.61,54.19-1.83,1.38-4.71,3-4.84,4.7-.55,7-.24,14.09-.24,21.16,53.72-2.93,111.14-57.64,110.18-119.7-1.06-68-61-114.63-110.1-116.49Z" transform="translate(-934.57 -363.48)"/><path class="cls-1" d="M1094.85,497.48c4-4.54,7.64-9.35,12-13.42,8.06-7.58,17.69-12.05,29-10.86,16.53,1.73,27.9,14.88,28.62,32.47.56,13.6-3.85,25.87-10.47,37.45-11.88,20.75-28.87,36.85-47.37,51.53-3.64,2.89-7.42,5.59-11.43,8.59-25.58-19-49.46-39.27-63.1-68.88-5.39-11.71-8.08-24-4.75-36.88,5.32-20.54,25.22-30,44.6-21.25C1082,480.78,1089.05,488.6,1094.85,497.48Z" transform="translate(-934.57 -363.48)"/><path class="cls-1" d="M1086.38,642.72a111,111,0,0,1-55.39-20.8c-27.15-19.42-45.91-44.82-52.46-77.95-6.83-34.5,2.48-65.4,24.14-92.47,20.73-25.91,47.8-41.34,81-45.52.66-.08,1.33,0,2.75,0v63.35l-5.23-3.89c-15.33-11.3-31.87-14-49.3-5.86s-26,22.64-27.45,41.53c-1.21,16,3.53,30.57,11,44.42,13.57,25.3,33.66,44.85,55.57,62.78,1.54,1.26,3,2.83,4.72,3.66C1089.47,618.46,1087.78,630.27,1086.38,642.72Z" transform="translate(-934.57 -363.48)"/><path class="cls-1" d="M1103.83,469.59V406.21c49.12,1.86,109,48.53,110.1,116.49,1,62.06-56.46,116.77-110.18,119.7,0-7.07-.31-14.15.24-21.16.13-1.69,3-3.32,4.84-4.7,20.83-15.72,40.2-32.94,55.61-54.19,11.38-15.69,19.72-32.63,21.66-52.34,2.75-27.93-15.76-51.68-43.43-54.76-12.11-1.35-23,2.45-32.75,9.59C1108.05,466.21,1106.26,467.69,1103.83,469.59Z" transform="translate(-934.57 -363.48)"/></svg>