<svg id="Lag_1" data-name="Lag 1" xmlns="http://www.w3.org/2000/svg" viewBox="0 0 288.78 289"><defs><style>.cls-1{fill:#fff;}.cls-2{fill:#d00a10;}</style></defs><title>logo</title><path class="cls-1" d="M955.23,379.73c9.69,2,19.56,3.41,29.07,6.11,54.42,15.41,95.82,64.68,102,121,8.51,77-41.07,144.61-117,159.55-4.67.92-9.39,1.59-14.08,2.38h-26a13.63,13.63,0,0,0-2.67-.92c-78.06-8.92-134-77.45-127.54-156.27,4.84-58.93,46.34-109.73,103.15-125.85,9.18-2.6,18.7-4,28.06-6Zm-13,15.32c-3.23.2-7.22.43-11.21.71-1.16.08-2.31.28-3.46.46-37.49,5.85-67.13,24.73-89.28,55.12-20.2,27.71-29.21,58.86-22.3,92.85,9,44.55,35.9,76.13,75.88,96.58,29.87,15.27,60.89,16.74,92.28,4.54A136.69,136.69,0,0,0,1039.25,606c25.19-29.56,37.63-63.07,31.06-102.43C1060.41,444.23,1002.86,395.09,942.22,395.05Z" transform="translate(-798.51 -379.73)"/><path class="cls-2" d="M942.22,395.05c60.64,0,118.19,49.18,128.09,108.47,6.57,39.36-5.87,72.87-31.06,102.43a136.69,136.69,0,0,1-55.12,39.36c-31.39,12.2-62.41,10.73-92.28-4.54-40-20.45-66.83-52-75.88-96.58-6.91-34,2.1-65.14,22.3-92.85,22.15-30.39,51.79-49.27,89.28-55.12,1.15-.18,2.3-.38,3.46-.46C935,395.48,939,395.25,942.22,395.05Zm.33,102.43c-5.79-8.88-12.86-16.7-22.94-21.25-19.37-8.73-39.27.71-44.59,21.25-3.34,12.89-.65,25.17,4.74,36.88,13.64,29.61,37.52,49.88,63.11,68.88,4-3,7.79-5.7,11.42-8.59,18.5-14.68,35.5-30.78,47.37-51.53,6.62-11.58,11-23.85,10.48-37.45-.72-17.59-12.1-30.74-28.62-32.47-11.3-1.19-20.93,3.28-29,10.86C950.2,488.13,946.56,492.94,942.55,497.48Zm-8.47,145.24c1.41-12.45,3.1-24.26-10.72-30.76-1.76-.83-3.18-2.4-4.73-3.66-21.9-17.93-42-37.48-55.56-62.78-7.44-13.85-12.17-28.45-11-44.42,1.43-18.89,10.07-33.37,27.45-41.53s34-5.44,49.29,5.86l5.24,3.89V406c-1.43,0-2.1-.07-2.75,0-33.17,4.18-60.23,19.61-81,45.52-21.66,27.07-31,58-24.14,92.47,6.55,33.13,25.32,58.53,52.47,77.95A111,111,0,0,0,934.08,642.72Zm17.45-173.13c2.44-1.9,4.23-3.38,6.1-4.75,9.76-7.14,20.64-10.94,32.74-9.59,27.68,3.08,46.18,26.83,43.43,54.76-1.94,19.71-10.28,36.65-21.66,52.34-15.41,21.25-34.78,38.47-55.61,54.19-1.82,1.38-4.71,3-4.84,4.7-.55,7-.23,14.09-.23,21.16,53.71-2.93,111.14-57.64,110.17-119.7-1.06-68-61-114.63-110.1-116.49Z" transform="translate(-798.51 -379.73)"/><path class="cls-1" d="M942.55,497.48c4-4.54,7.65-9.35,12-13.42,8.07-7.58,17.7-12.05,29-10.86,16.52,1.73,27.9,14.88,28.62,32.47.56,13.6-3.86,25.87-10.48,37.45-11.87,20.75-28.87,36.85-47.37,51.53-3.63,2.89-7.41,5.59-11.42,8.59-25.59-19-49.47-39.27-63.11-68.88-5.39-11.71-8.08-24-4.74-36.88,5.32-20.54,25.22-30,44.59-21.25C929.69,480.78,936.76,488.6,942.55,497.48Z" transform="translate(-798.51 -379.73)"/><path class="cls-1" d="M934.08,642.72a111,111,0,0,1-55.38-20.8C851.55,602.5,832.78,577.1,826.23,544c-6.82-34.5,2.48-65.4,24.14-92.47,20.74-25.91,47.8-41.34,81-45.52.65-.08,1.32,0,2.75,0v63.35l-5.24-3.89c-15.32-11.3-31.87-14-49.29-5.86s-26,22.64-27.45,41.53c-1.21,16,3.52,30.57,11,44.42,13.57,25.3,33.66,44.85,55.56,62.78,1.55,1.26,3,2.83,4.73,3.66C937.18,618.46,935.49,630.27,934.08,642.72Z" transform="translate(-798.51 -379.73)"/><path class="cls-1" d="M951.53,469.59V406.21c49.13,1.86,109,48.53,110.1,116.49,1,62.06-56.46,116.77-110.17,119.7,0-7.07-.32-14.15.23-21.16.13-1.69,3-3.32,4.84-4.7,20.83-15.72,40.2-32.94,55.61-54.19,11.38-15.69,19.72-32.63,21.66-52.34,2.75-27.93-15.75-51.68-43.43-54.76-12.1-1.35-23,2.45-32.74,9.59C955.76,466.21,954,467.69,951.53,469.59Z" transform="translate(-798.51 -379.73)"/></svg>